<?xml version="1.0" standalone="no"?>
<!DOCTYPE svg PUBLIC "-//W3C//DTD SVG 20010904//EN"
 "http://www.w3.org/TR/2001/REC-SVG-20010904/DTD/svg10.dtd">
<svg version="1.0" xmlns="http://www.w3.org/2000/svg"
 width="150.000000pt" height="150.000000pt" viewBox="0 0 150.000000 150.000000"
 preserveAspectRatio="xMidYMid meet">
<metadata>
Created by potrace 1.14, written by Peter Selinger 2001-2017
</metadata>
<g transform="translate(0.000000,150.000000) scale(0.100000,-0.100000)"
fill="#000000" stroke="none">
<path d="M0 750 l0 -750 750 0 750 0 0 750 0 750 -750 0 -750 0 0 -750z m854
177 c53 -92 96 -170 96 -172 0 -3 -8 -1 -18 4 -26 14 -182 287 -182 319 0 14
2 23 4 21 2 -2 47 -79 100 -172z m-134 49 c-14 -8 -48 -55 -78 -108 -30 -52
-63 -100 -74 -107 -25 -16 -26 -18 50 117 60 106 66 112 95 112 l32 -1 -25
-13z m45 -193 c-11 -20 -22 -30 -28 -24 -5 5 -5 17 2 29 6 11 11 33 11 49 l0
27 17 -23 c15 -22 15 -26 -2 -58z m-47 0 c3 -10 -13 -13 -60 -13 -58 1 -62 2
-43 16 24 18 96 15 103 -3z m-427 -168 c13 -35 14 -45 4 -45 -8 0 -15 6 -18
13 -3 10 -9 10 -26 0 -30 -18 -30 -18 -12 32 9 25 20 45 26 45 6 0 17 -20 26
-45z m127 33 c29 -29 7 -78 -35 -78 -21 0 -23 5 -23 45 0 40 2 45 23 45 13 0
28 -5 35 -12z m90 -16 c2 -12 7 -22 12 -22 5 0 10 10 12 22 2 12 8 23 15 25 9
3 8 -8 -3 -41 -9 -25 -20 -46 -24 -46 -4 0 -15 21 -24 46 -11 33 -12 44 -3 41
7 -2 13 -13 15 -25z m152 18 c0 -5 -8 -10 -17 -10 -15 0 -14 -2 3 -15 17 -13
17 -14 2 -15 -26 0 -22 -28 5 -33 16 -3 13 -5 -10 -6 -33 -1 -33 0 -33 44 0
41 2 45 25 45 14 0 25 -4 25 -10z m94 -17 l15 -28 1 28 c0 15 5 27 10 27 6 0
10 -20 10 -45 0 -50 -10 -56 -33 -22 l-16 22 0 -22 c-1 -44 -21 -23 -21 22 0
51 13 58 34 18z m149 20 c-8 -2 -13 -22 -13 -44 0 -21 -4 -39 -10 -39 -5 0
-10 16 -10 35 0 22 -6 38 -17 44 -14 8 -10 10 22 10 22 0 34 -3 28 -6z m77
-27 c0 -38 17 -57 31 -35 5 8 9 26 9 42 0 15 5 27 10 27 14 0 12 -53 -3 -74
-8 -11 -23 -17 -38 -14 -21 3 -24 9 -27 46 -2 25 1 42 7 42 6 0 11 -15 11 -34z
m176 -13 c0 -43 -11 -57 -22 -28 -4 8 -11 15 -16 15 -6 0 -8 -7 -4 -15 3 -8 1
-15 -4 -15 -6 0 -10 21 -10 46 0 44 1 45 28 42 25 -3 27 -7 28 -45z m114 37
c0 -5 -10 -11 -22 -11 -17 -1 -19 -2 -5 -6 18 -5 24 -23 7 -23 -17 0 -11 -28
8 -33 10 -3 6 -5 -10 -6 -27 -1 -28 1 -28 44 0 41 2 45 25 45 14 0 25 -4 25
-10z m-655 -167 c7 17 8 17 21 0 13 -17 13 -17 14 1 0 11 2 17 5 14 9 -8 -6
-58 -16 -58 -5 0 -10 8 -10 18 -1 16 -2 16 -6 0 -4 -18 -23 -26 -23 -10 0 4
-3 18 -5 32 -5 21 -4 22 4 5 8 -19 9 -19 16 -2z m119 2 c9 -24 -4 -45 -29 -45
-27 0 -40 26 -24 46 15 18 45 18 53 -1z m61 -17 c1 -27 -14 -41 -16 -15 0 10
-2 10 -6 0 -9 -24 -23 -13 -23 18 0 25 3 30 22 27 16 -2 22 -10 23 -30z m37 2
c3 -20 0 -30 -9 -30 -8 0 -13 12 -13 30 0 17 4 30 9 30 5 0 11 -13 13 -30z
m73 0 c0 -18 -6 -26 -22 -28 -20 -3 -23 1 -23 28 0 27 3 31 23 28 16 -2 22
-10 22 -28z"/>
<path d="M261 614 c0 -11 3 -14 6 -6 3 7 2 16 -1 19 -3 4 -6 -2 -5 -13z"/>
<path d="M380 614 c0 -24 4 -34 13 -32 19 7 21 54 3 61 -13 5 -16 -1 -16 -29z"/>
<path d="M1116 643 c-11 -11 -6 -23 9 -23 8 0 15 4 15 9 0 13 -16 22 -24 14z"/>
<path d="M690 470 c0 -11 7 -20 15 -20 8 0 15 9 15 20 0 11 -7 20 -15 20 -8 0
-15 -9 -15 -20z"/>
<path d="M870 470 c0 -13 5 -20 13 -17 6 2 12 10 12 17 0 7 -6 15 -12 18 -8 2
-13 -5 -13 -18z"/>
</g>
</svg>
